<svg width="30" height="30" viewBox="0 0 30 30" fill="none" xmlns="http://www.w3.org/2000/svg">
<path d="M1.725 28.125V28.275H1.875H5.85938H6.00938V28.125V1.875V1.725H5.85938H1.875H1.725V1.875V28.125ZM6.79688 29.85H0.9375C0.728642 29.85 0.528338 29.767 0.380653 29.6193C0.232969 29.4717 0.15 29.2714 0.15 29.0625V0.9375C0.15 0.728642 0.232969 0.528338 0.380653 0.380653C0.528338 0.232969 0.728642 0.15 0.9375 0.15H6.79688C7.00573 0.15 7.20604 0.232969 7.35372 0.380653C7.50141 0.528338 7.58437 0.728642 7.58437 0.9375V29.0625C7.58437 29.2714 7.50141 29.4717 7.35372 29.6193C7.20604 29.767 7.00573 29.85 6.79688 29.85Z" fill="#FF5E14" stroke="#FFF2EC" stroke-width="0.3"/>
<path d="M7.58438 28.125V28.275H7.73438H11.7188H11.8688V28.125V1.875V1.725H11.7188H7.73438H7.58438V1.875V28.125ZM12.6562 29.85H6.79688C6.58802 29.85 6.38771 29.767 6.24003 29.6193C6.09234 29.4717 6.00938 29.2714 6.00938 29.0625V0.9375C6.00938 0.728642 6.09234 0.528338 6.24003 0.380653C6.38771 0.232969 6.58802 0.15 6.79688 0.15H12.6562C12.8651 0.15 13.0654 0.232969 13.2131 0.380653C13.3608 0.528338 13.4437 0.728642 13.4437 0.9375V29.0625C13.4437 29.2714 13.3608 29.4717 13.2131 29.6193C13.0654 29.767 12.8651 29.85 12.6562 29.85Z" fill="#FF5E14" stroke="#FFF2EC" stroke-width="0.3"/>
<g opacity="0.2">
<path d="M10.3792 24.3599C11.2598 23.7554 11.9866 22.9576 12.5062 22.031V28.9125H6.94688V25.5619C8.17656 25.4732 9.36145 25.0587 10.3792 24.3599Z" fill="#FF5E14" stroke="#FFF2EC" stroke-width="0.3"/>
</g>
<g opacity="0.2">
<path d="M4.51985 24.3599C5.40038 23.7554 6.12721 22.9576 6.64687 22.031V28.9125H1.0875V25.5619C2.31719 25.4732 3.50207 25.0587 4.51985 24.3599Z" fill="#FF5E14" stroke="#FFF2EC" stroke-width="0.3"/>
</g>
<path d="M13.4438 28.125V28.275H13.5938H22.6172H22.7672V28.125V13.6816C22.7672 13.4728 22.8502 13.2725 22.9978 13.1248C23.1455 12.9771 23.3458 12.8941 23.5547 12.8941C23.7635 12.8941 23.9639 12.9771 24.1115 13.1248C24.2592 13.2725 24.3422 13.4728 24.3422 13.6816V29.0625C24.3422 29.2714 24.2592 29.4717 24.1115 29.6193C23.9639 29.767 23.7635 29.85 23.5547 29.85H12.6562C12.4474 29.85 12.2471 29.767 12.0994 29.6193C11.9517 29.4717 11.8688 29.2714 11.8688 29.0625V15C11.8688 14.7911 11.9517 14.5908 12.0994 14.4432C12.2471 14.2955 12.4474 14.2125 12.6562 14.2125C12.8651 14.2125 13.0654 14.2955 13.2131 14.4432C13.3608 14.5908 13.4438 14.7911 13.4438 15V28.125Z" fill="#FF5E14" stroke="#FFF2EC" stroke-width="0.3"/>
<path d="M13.4438 28.125V28.275H13.5938H28.125H28.275V28.125V1.875V1.725H28.125H13.5938H13.4438V1.875V28.125ZM29.0625 29.85H12.6562C12.4474 29.85 12.2471 29.767 12.0994 29.6193C11.9517 29.4717 11.8688 29.2714 11.8688 29.0625V0.9375C11.8688 0.728642 11.9517 0.528338 12.0994 0.380653C12.2471 0.232969 12.4474 0.15 12.6562 0.15H29.0625C29.2714 0.15 29.4717 0.232969 29.6193 0.380654C29.767 0.528338 29.85 0.728642 29.85 0.9375V29.0625C29.85 29.2714 29.767 29.4717 29.6193 29.6193C29.4717 29.767 29.2714 29.85 29.0625 29.85Z" fill="#FF5E14" stroke="#FFF2EC" stroke-width="0.3"/>
<path d="M16.7576 15.3188L16.7572 15.3188C16.5565 15.3193 16.3631 15.2432 16.2166 15.106C16.0702 14.9688 15.9816 14.7809 15.969 14.5806C15.9564 14.3803 16.0208 14.1827 16.149 14.0283C16.2772 13.8738 16.4595 13.7742 16.6587 13.7497L16.659 13.7496L24.2762 12.7981L24.4076 12.7816V12.6492V12.2537V12.2537C24.4076 12.076 24.37 11.9003 24.2975 11.738C24.2249 11.5758 24.1189 11.4307 23.9865 11.3122C23.854 11.1938 23.698 11.1046 23.5287 11.0505C23.3594 10.9964 23.1806 10.9787 23.004 10.9984L14.7944 11.9154L14.7944 11.9154L14.793 11.9155C14.6898 11.9281 14.585 11.92 14.4849 11.8918C14.3848 11.8636 14.2912 11.8159 14.2096 11.7514C14.1281 11.6868 14.0601 11.6068 14.0096 11.5158C13.9591 11.4248 13.9272 11.3248 13.9156 11.2214C13.9041 11.118 13.9131 11.0134 13.9422 10.9135C13.9713 10.8136 14.0199 10.7205 14.0852 10.6395C14.1505 10.5585 14.2311 10.4913 14.3226 10.4417C14.414 10.392 14.5143 10.361 14.6178 10.3504L14.6178 10.3504L14.6192 10.3502L22.8293 9.43267C22.8293 9.43267 22.8293 9.43267 22.8293 9.43267C23.2262 9.38835 23.6279 9.42828 24.0083 9.54984C24.3887 9.6714 24.7391 9.87185 25.0367 10.1381C25.3343 10.4044 25.5724 10.7304 25.7354 11.095C25.8984 11.4595 25.9826 11.8544 25.9826 12.2537V13.4766V13.4766C25.9826 13.6685 25.9127 13.8538 25.7858 13.9977C25.6589 14.1416 25.4839 14.2342 25.2935 14.2582C22.8487 14.5637 21.1073 14.7815 19.8658 14.9369C18.8152 15.0683 18.1226 15.155 17.6647 15.212C16.7803 15.3222 16.7748 15.3212 16.7645 15.3193C16.7631 15.319 16.7616 15.3188 16.7576 15.3188ZM16.0336 13.9325C16.1862 13.7486 16.4033 13.63 16.6404 13.6008L16.7576 15.4688C16.5187 15.4694 16.2885 15.3788 16.1141 15.2155C15.9397 15.0522 15.8343 14.8284 15.8193 14.59C15.8043 14.3515 15.881 14.1163 16.0336 13.9325Z" fill="#FF5E14" stroke="#FFF2EC" stroke-width="0.3"/>
<path d="M12.6562 16.0219C12.4474 16.0219 12.2471 15.9389 12.0994 15.7912C11.9517 15.6435 11.8688 15.4432 11.8688 15.2344V13.1836C11.8688 12.4308 12.1678 11.7089 12.7001 11.1766C13.2323 10.6443 13.9543 10.3453 14.707 10.3453C15.4598 10.3453 16.1817 10.6443 16.714 11.1766C17.2463 11.7089 17.5453 12.4308 17.5453 13.1836V14.5312C17.5453 14.7401 17.4623 14.9404 17.3147 15.0881C17.167 15.2358 16.9667 15.3187 16.7578 15.3187C16.549 15.3187 16.3486 15.2358 16.201 15.0881C16.0533 14.9404 15.9703 14.7401 15.9703 14.5312V13.1836C15.9703 12.8486 15.8372 12.5272 15.6003 12.2903C15.3634 12.0534 15.0421 11.9203 14.707 11.9203C14.372 11.9203 14.0507 12.0534 13.8138 12.2903C13.5768 12.5272 13.4438 12.8486 13.4438 13.1836V15.2344C13.4438 15.4432 13.3608 15.6435 13.2131 15.7912C13.0654 15.9389 12.8651 16.0219 12.6562 16.0219Z" fill="#FF5E14" stroke="#FFF2EC" stroke-width="0.3"/>
<g opacity="0.2">
<path d="M25.0451 12.2537V12.2538V13.3443L21.4333 13.7981C21.8357 13.3811 22.166 12.8986 22.4095 12.3702C22.6992 11.7414 22.8596 11.0613 22.8816 10.3702L22.9336 10.3644C22.9336 10.3644 22.9336 10.3644 22.9337 10.3643C23.1994 10.3347 23.4684 10.3615 23.7231 10.4429C23.9779 10.5243 24.2125 10.6586 24.4118 10.8369C24.6111 11.0152 24.7705 11.2336 24.8796 11.4778C24.9888 11.7219 25.0452 11.9863 25.0451 12.2537Z" fill="#FF5E14" stroke="#FFF2EC" stroke-width="0.3"/>
</g>
<g opacity="0.2">
<path d="M19.099 23.81C20.8823 22.7651 22.3638 21.2807 23.4047 19.5025V28.9125H12.8063V25.4607C15.0145 25.4981 17.1917 24.9275 19.099 23.81Z" fill="#FF5E14" stroke="#FFF2EC" stroke-width="0.3"/>
</g>
</svg>
