<svg width="30" height="30" viewBox="0 0 30 30" fill="none" xmlns="http://www.w3.org/2000/svg">
<path d="M6.5625 28.1121C7.59796 28.1121 8.4375 27.2671 8.4375 26.2244C8.4375 25.1819 7.59796 24.3367 6.5625 24.3367C5.52704 24.3367 4.6875 25.1819 4.6875 26.2244C4.6875 27.2671 5.52704 28.1121 6.5625 28.1121ZM6.5625 25.2805C7.08023 25.2805 7.5 25.7031 7.5 26.2244C7.5 26.7456 7.08023 27.1682 6.5625 27.1682C6.04477 27.1682 5.625 26.7456 5.625 26.2244C5.625 25.7031 6.04477 25.2805 6.5625 25.2805Z" fill="#FF5E14"/>
<path d="M27.1875 29.0561V11.8086L15 3.95563L4.48265 10.7322L4.23317 8.84453C4.76303 8.53114 5.17708 8.05275 5.4126 7.48151L15 1.30103L29.2786 10.5009L29.7839 9.70704L15 0.1802L5.61653 6.22795C5.52658 3.336 3.27141 0.558342 3.17345 0.439438L2.8125 0L2.45201 0.44036C2.35085 0.56249 0 3.46596 0 6.40354C0.00160218 7.40754 0.531006 8.33573 1.39183 8.84291L0.47287 15.7804L0.46875 30H1.40625V16.3141H4.21875V22.0194L3.479 22.4491H2.34375V30H24.8438V22.4491H23.8346L22.5639 17.6902L21.5625 17.9603V11.1228H8.4375V19.5671L5.15625 21.4746V15.8421L4.61861 11.7653L15 5.076L26.25 12.325V30H30V29.0561H27.1875ZM1.47285 15.3702L2.29225 9.18465C2.6358 9.25193 2.9892 9.25193 3.33275 9.18465L4.15215 15.3702H1.47285ZM3.28125 8.2242V6.40354H2.34375V8.2242C1.5184 8.00966 0.940704 7.26167 0.9375 6.40354C0.9375 4.45936 2.1801 2.43315 2.8125 1.52801C3.44627 2.43039 4.6875 4.44945 4.6875 6.40354C4.6843 7.26167 4.1066 8.00966 3.28125 8.2242ZM14.5312 29.0561H10.7812V23.393H14.5312V29.0561ZM19.2188 29.0561H15.4688V23.393H19.2188V29.0561ZM23.9062 23.393V29.0561H20.1562V23.393H23.9062ZM21.9019 18.8461L22.8637 22.4491H8.55103L21.9019 18.8461ZM15.4688 12.0667H20.625V16.618L18.8466 13.5175L15.4688 15.4808V12.0667ZM9.375 12.0667H14.5312V15.8421H9.375V12.0667ZM9.375 16.786H13.2225L9.375 19.0226V16.786ZM18.5035 14.8068L20.4797 18.2518L5.72205 22.236L18.5035 14.8068ZM9.84375 23.393V29.0561H3.28125V23.393H9.84375Z" fill="#FF5E14"/>
</svg>
