<svg width="30" height="30" viewBox="0 0 30 30" fill="none" xmlns="http://www.w3.org/2000/svg">
<path d="M3 30H22C23.6545 30 25 28.2055 25 26V6.973C25.4788 7.59806 26.213 7.97507 27 8C28.6545 8 30 6.2055 30 4C30 1.7945 28.6545 0 27 0H7C5.3455 0 4 1.7945 4 4V22H3C1.3455 22 0 23.7945 0 26C0 28.2055 1.3455 30 3 30ZM29 4C29 5.626 28.084 7 27 7C25.916 7 25 5.626 25 4C25 2.374 25.916 1 27 1C28.084 1 29 2.374 29 4ZM5 4C5 2.374 5.916 1 7 1H25.0225C24.3405 1.8492 23.9786 2.91105 24 4V26C24 27.626 23.084 29 22 29H21.5C20.416 29 19.5 27.626 19.5 26C19.5 24.374 20.416 23 21.5 23C21.7761 23 22 22.7761 22 22.5C22 22.2239 21.7761 22 21.5 22H5V4ZM3 23H19.5175C18.1609 24.7699 18.1609 27.2301 19.5175 29H3C1.916 29 1 27.626 1 26C1 24.374 1.916 23 3 23Z" fill="#FF5E14"/>
<path d="M27 5C27.2761 5 27.5 4.77614 27.5 4.5V3.5C27.5 3.22386 27.2761 3 27 3C26.7239 3 26.5 3.22386 26.5 3.5V4.5C26.5 4.77614 26.7239 5 27 5Z" fill="#FF5E14"/>
<path d="M9 6C9.27614 6 9.5 5.77614 9.5 5.5V5C9.5 4.72386 9.27614 4.5 9 4.5C8.72386 4.5 8.5 4.72386 8.5 5V5.5C8.5 5.77614 8.72386 6 9 6Z" fill="#FF5E14"/>
<path d="M10.5 6H10C9.72386 6 9.5 6.22386 9.5 6.5C9.5 6.77614 9.72386 7 10 7H10.5C10.7761 7 11 6.77614 11 6.5C11 6.22386 10.7761 6 10.5 6Z" fill="#FF5E14"/>
<path d="M7.5 7H8C8.27614 7 8.5 6.77614 8.5 6.5C8.5 6.22386 8.27614 6 8 6H7.5C7.22386 6 7 6.22386 7 6.5C7 6.77614 7.22386 7 7.5 7Z" fill="#FF5E14"/>
<path d="M9.5 7.5C9.5 7.22386 9.27614 7 9 7C8.72386 7 8.5 7.22386 8.5 7.5V8C8.5 8.27614 8.72386 8.5 9 8.5C9.27614 8.5 9.5 8.27614 9.5 8V7.5Z" fill="#FF5E14"/>
<path d="M20 6C20.2761 6 20.5 5.77614 20.5 5.5V5C20.5 4.72386 20.2761 4.5 20 4.5C19.7239 4.5 19.5 4.72386 19.5 5V5.5C19.5 5.77614 19.7239 6 20 6Z" fill="#FF5E14"/>
<path d="M21 7H21.5C21.7761 7 22 6.77614 22 6.5C22 6.22386 21.7761 6 21.5 6H21C20.7239 6 20.5 6.22386 20.5 6.5C20.5 6.77614 20.7239 7 21 7Z" fill="#FF5E14"/>
<path d="M18.5 7H19C19.2761 7 19.5 6.77614 19.5 6.5C19.5 6.22386 19.2761 6 19 6H18.5C18.2239 6 18 6.22386 18 6.5C18 6.77614 18.2239 7 18.5 7Z" fill="#FF5E14"/>
<path d="M20 8.5C20.2761 8.5 20.5 8.27614 20.5 8V7.5C20.5 7.22386 20.2761 7 20 7C19.7239 7 19.5 7.22386 19.5 7.5V8C19.5 8.27614 19.7239 8.5 20 8.5Z" fill="#FF5E14"/>
<path d="M14.5 3.5C14.7761 3.5 15 3.27614 15 3V2.5C15 2.22386 14.7761 2 14.5 2C14.2239 2 14 2.22386 14 2.5V3C14 3.27614 14.2239 3.5 14.5 3.5Z" fill="#FF5E14"/>
<path d="M16 3.5H15.5C15.2239 3.5 15 3.72386 15 4C15 4.27614 15.2239 4.5 15.5 4.5H16C16.2761 4.5 16.5 4.27614 16.5 4C16.5 3.72386 16.2761 3.5 16 3.5Z" fill="#FF5E14"/>
<path d="M13 4.5H13.5C13.7761 4.5 14 4.27614 14 4C14 3.72386 13.7761 3.5 13.5 3.5H13C12.7239 3.5 12.5 3.72386 12.5 4C12.5 4.27614 12.7239 4.5 13 4.5Z" fill="#FF5E14"/>
<path d="M15 5C15 4.72386 14.7761 4.5 14.5 4.5C14.2239 4.5 14 4.72386 14 5V5.5C14 5.77614 14.2239 6 14.5 6C14.7761 6 15 5.77614 15 5.5V5Z" fill="#FF5E14"/>
<path d="M9.5 11C9.5 10.7239 9.27614 10.5 9 10.5C8.72386 10.5 8.5 10.7239 8.5 11V11.5C8.5 11.7761 8.72386 12 9 12C9.27614 12 9.5 11.7761 9.5 11.5V11Z" fill="#FF5E14"/>
<path d="M10.5 12H10C9.72386 12 9.5 12.2239 9.5 12.5C9.5 12.7761 9.72386 13 10 13H10.5C10.7761 13 11 12.7761 11 12.5C11 12.2239 10.7761 12 10.5 12Z" fill="#FF5E14"/>
<path d="M7.5 13H8C8.27614 13 8.5 12.7761 8.5 12.5C8.5 12.2239 8.27614 12 8 12H7.5C7.22386 12 7 12.2239 7 12.5C7 12.7761 7.22386 13 7.5 13Z" fill="#FF5E14"/>
<path d="M9.5 13.5C9.5 13.2239 9.27614 13 9 13C8.72386 13 8.5 13.2239 8.5 13.5V14C8.5 14.2761 8.72386 14.5 9 14.5C9.27614 14.5 9.5 14.2761 9.5 14V13.5Z" fill="#FF5E14"/>
<path d="M20.5 11C20.5 10.7239 20.2761 10.5 20 10.5C19.7239 10.5 19.5 10.7239 19.5 11V11.5C19.5 11.7761 19.7239 12 20 12C20.2761 12 20.5 11.7761 20.5 11.5V11Z" fill="#FF5E14"/>
<path d="M21 13H21.5C21.7761 13 22 12.7761 22 12.5C22 12.2239 21.7761 12 21.5 12H21C20.7239 12 20.5 12.2239 20.5 12.5C20.5 12.7761 20.7239 13 21 13Z" fill="#FF5E14"/>
<path d="M18.5 13H19C19.2761 13 19.5 12.7761 19.5 12.5C19.5 12.2239 19.2761 12 19 12H18.5C18.2239 12 18 12.2239 18 12.5C18 12.7761 18.2239 13 18.5 13Z" fill="#FF5E14"/>
<path d="M20.5 13.5C20.5 13.2239 20.2761 13 20 13C19.7239 13 19.5 13.2239 19.5 13.5V14C19.5 14.2761 19.7239 14.5 20 14.5C20.2761 14.5 20.5 14.2761 20.5 14V13.5Z" fill="#FF5E14"/>
<path d="M15 8.5C15 8.22386 14.7761 8 14.5 8C14.2239 8 14 8.22386 14 8.5V9C14 9.27614 14.2239 9.5 14.5 9.5C14.7761 9.5 15 9.27614 15 9V8.5Z" fill="#FF5E14"/>
<path d="M16 9.5H15.5C15.2239 9.5 15 9.72386 15 10C15 10.2761 15.2239 10.5 15.5 10.5H16C16.2761 10.5 16.5 10.2761 16.5 10C16.5 9.72386 16.2761 9.5 16 9.5Z" fill="#FF5E14"/>
<path d="M13 10.5H13.5C13.7761 10.5 14 10.2761 14 10C14 9.72386 13.7761 9.5 13.5 9.5H13C12.7239 9.5 12.5 9.72386 12.5 10C12.5 10.2761 12.7239 10.5 13 10.5Z" fill="#FF5E14"/>
<path d="M15 11C15 10.7239 14.7761 10.5 14.5 10.5C14.2239 10.5 14 10.7239 14 11V11.5C14 11.7761 14.2239 12 14.5 12C14.7761 12 15 11.7761 15 11.5V11Z" fill="#FF5E14"/>
<path d="M9 16.5C8.72386 16.5 8.5 16.7239 8.5 17V17.5C8.5 17.7761 8.72386 18 9 18C9.27614 18 9.5 17.7761 9.5 17.5V17C9.5 16.7239 9.27614 16.5 9 16.5Z" fill="#FF5E14"/>
<path d="M10.5 18H10C9.72386 18 9.5 18.2239 9.5 18.5C9.5 18.7761 9.72386 19 10 19H10.5C10.7761 19 11 18.7761 11 18.5C11 18.2239 10.7761 18 10.5 18Z" fill="#FF5E14"/>
<path d="M8 18H7.5C7.22386 18 7 18.2239 7 18.5C7 18.7761 7.22386 19 7.5 19H8C8.27614 19 8.5 18.7761 8.5 18.5C8.5 18.2239 8.27614 18 8 18Z" fill="#FF5E14"/>
<path d="M9 19C8.72386 19 8.5 19.2239 8.5 19.5V20C8.5 20.2761 8.72386 20.5 9 20.5C9.27614 20.5 9.5 20.2761 9.5 20V19.5C9.5 19.2239 9.27614 19 9 19Z" fill="#FF5E14"/>
<path d="M20 16.5C19.7239 16.5 19.5 16.7239 19.5 17V17.5C19.5 17.7761 19.7239 18 20 18C20.2761 18 20.5 17.7761 20.5 17.5V17C20.5 16.7239 20.2761 16.5 20 16.5Z" fill="#FF5E14"/>
<path d="M22 18.5C22 18.2239 21.7761 18 21.5 18H21C20.7239 18 20.5 18.2239 20.5 18.5C20.5 18.7761 20.7239 19 21 19H21.5C21.7761 19 22 18.7761 22 18.5Z" fill="#FF5E14"/>
<path d="M19 18H18.5C18.2239 18 18 18.2239 18 18.5C18 18.7761 18.2239 19 18.5 19H19C19.2761 19 19.5 18.7761 19.5 18.5C19.5 18.2239 19.2761 18 19 18Z" fill="#FF5E14"/>
<path d="M20 19C19.7239 19 19.5 19.2239 19.5 19.5V20C19.5 20.2761 19.7239 20.5 20 20.5C20.2761 20.5 20.5 20.2761 20.5 20V19.5C20.5 19.2239 20.2761 19 20 19Z" fill="#FF5E14"/>
<path d="M14.5 14C14.2239 14 14 14.2239 14 14.5V15C14 15.2761 14.2239 15.5 14.5 15.5C14.7761 15.5 15 15.2761 15 15V14.5C15 14.2239 14.7761 14 14.5 14Z" fill="#FF5E14"/>
<path d="M16 15.5H15.5C15.2239 15.5 15 15.7239 15 16C15 16.2761 15.2239 16.5 15.5 16.5H16C16.2761 16.5 16.5 16.2761 16.5 16C16.5 15.7239 16.2761 15.5 16 15.5Z" fill="#FF5E14"/>
<path d="M13.5 15.5H13C12.7239 15.5 12.5 15.7239 12.5 16C12.5 16.2761 12.7239 16.5 13 16.5H13.5C13.7761 16.5 14 16.2761 14 16C14 15.7239 13.7761 15.5 13.5 15.5Z" fill="#FF5E14"/>
<path d="M14.5 16.5C14.2239 16.5 14 16.7239 14 17V17.5C14 17.7761 14.2239 18 14.5 18C14.7761 18 15 17.7761 15 17.5V17C15 16.7239 14.7761 16.5 14.5 16.5Z" fill="#FF5E14"/>
</svg>
