<svg width="30" height="30" viewBox="0 0 30 30" fill="none" xmlns="http://www.w3.org/2000/svg">
<path d="M28.8968 24.3413C28.806 24.2506 28.6829 24.1996 28.5546 24.1995C28.4262 24.1995 28.3031 24.1485 28.2124 24.0578C28.1216 23.967 28.0706 23.8439 28.0706 23.7156C28.0707 23.5873 28.0199 23.4642 27.9293 23.3734L23.5803 19.0176C23.5354 18.9726 23.4821 18.9368 23.4233 18.9124C23.3646 18.888 23.3017 18.8754 23.2381 18.8753C23.1097 18.8753 22.9866 18.8243 22.8959 18.7335C22.8051 18.6428 22.7541 18.5197 22.7541 18.3913C22.7541 18.263 22.7031 18.1399 22.6123 18.0492L21.6444 17.0812C21.5545 16.9913 21.4328 16.9403 21.3056 16.9394L19.0754 16.9326L17.6235 15.486C17.5583 15.4198 17.5068 15.3413 17.4722 15.2551C17.4375 15.1688 17.4204 15.0765 17.4217 14.9836C17.423 14.8907 17.4427 14.7989 17.4798 14.7137C17.5168 14.6285 17.5705 14.5514 17.6375 14.4871L23.0373 8.6174C23.4071 8.24762 23.7005 7.8086 23.9006 7.32542C24.1008 6.84225 24.2038 6.32438 24.2038 5.80138C24.2038 5.27839 24.1008 4.76051 23.9006 4.27734C23.7005 3.79416 23.4071 3.35515 23.0373 2.98536L21.2199 1.16996C20.4691 0.420761 19.4517 0 18.3911 0C17.3304 0 16.313 0.420761 15.5622 1.16996L15.4872 1.24498L15.2036 0.961367C14.8886 0.661337 14.4703 0.493984 14.0353 0.493984C13.6003 0.493984 13.1819 0.661337 12.867 0.961367L0.483917 13.3444C0.174069 13.6543 0 14.0745 0 14.5127C0 14.9509 0.174069 15.3712 0.483917 15.6811L0.828992 16.0261L0.0812476 17.1485C0.0192911 17.2415 -0.00853687 17.3532 0.00249137 17.4644C0.0135196 17.5757 0.0627239 17.6797 0.141745 17.7588L1.45187 19.0689V27.8221C1.45187 28.3997 1.68133 28.9537 2.08976 29.3621C2.4982 29.7705 3.05215 30 3.62977 30C4.20738 30 4.76134 29.7705 5.16977 29.3621C5.57821 28.9537 5.80767 28.3997 5.80767 27.8221V24.1923C5.80767 23.9356 5.90965 23.6894 6.09117 23.5078C6.2727 23.3263 6.5189 23.2243 6.77562 23.2243C7.03234 23.2243 7.27854 23.3263 7.46007 23.5078C7.64159 23.6894 7.74358 23.9356 7.74358 24.1923C7.74358 24.7057 7.94754 25.1981 8.31059 25.5612C8.67364 25.9242 9.16605 26.1282 9.67948 26.1282C10.1929 26.1282 10.6853 25.9242 11.0484 25.5612C11.4114 25.1981 11.6154 24.7057 11.6154 24.1923V13.2612L18.3911 6.48548C18.7009 6.17562 18.875 5.75536 18.875 5.31716C18.875 4.87896 18.7009 4.4587 18.3911 4.14884L17.6235 3.38125L17.9042 3.10055C18.0354 2.97545 18.2098 2.90567 18.3911 2.90567C18.5724 2.90567 18.7467 2.97545 18.878 3.10055L21.1042 5.32684C21.1674 5.39105 21.2172 5.46717 21.2507 5.55077C21.2842 5.63438 21.3007 5.7238 21.2994 5.81385C21.298 5.90391 21.2788 5.9928 21.2428 6.07536C21.2068 6.15792 21.1548 6.23251 21.0897 6.2948L15.6934 12.1621C14.9427 12.9143 14.5211 13.9337 14.5211 14.9965C14.5211 16.0592 14.9427 17.0786 15.6934 17.8309L16.9391 19.0708L16.9464 21.2884C16.9473 21.4156 16.9983 21.5373 17.0882 21.6272L18.0562 22.5951C18.1469 22.6859 18.27 22.7369 18.3983 22.737C18.5267 22.737 18.6498 22.7879 18.7406 22.8787C18.8313 22.9695 18.8823 23.0926 18.8823 23.2209C18.8822 23.3492 18.933 23.4723 19.0236 23.5631L23.3722 27.9189C23.4169 27.9645 23.4702 28.0008 23.529 28.0257C23.5878 28.0507 23.651 28.0637 23.7148 28.0641C23.8432 28.0641 23.9663 28.1151 24.057 28.2058C24.1478 28.2966 24.1988 28.4197 24.1988 28.5481C24.1988 28.6764 24.2498 28.7995 24.3406 28.8902L25.3086 29.8582C25.3993 29.949 25.5224 30 25.6507 30H26.6187C26.747 30 26.8701 29.949 26.9609 29.8582L28.361 28.459C28.3797 28.4452 28.3973 28.43 28.4138 28.4135L29.8657 26.9616C29.9561 26.8707 30.0068 26.7476 30.0065 26.6194V25.6515C30.0065 25.5231 29.9555 25.4 29.8647 25.3093L28.8968 24.3413ZM1.99731 18.2456L1.1068 17.3551L1.52689 16.726L2.62794 17.8251L1.99731 18.2456ZM10.6474 24.1923C10.6474 24.449 10.5455 24.6952 10.3639 24.8767C10.1824 25.0582 9.9362 25.1602 9.67948 25.1602C9.42277 25.1602 9.17656 25.0582 8.99504 24.8767C8.81351 24.6952 8.71153 24.449 8.71153 24.1923C8.71153 23.6788 8.50757 23.1864 8.14451 22.8234C7.78146 22.4603 7.28906 22.2564 6.77562 22.2564C6.26219 22.2564 5.76978 22.4603 5.40673 22.8234C5.04367 23.1864 4.83971 23.6788 4.83971 24.1923V27.8221C4.83971 28.143 4.71224 28.4508 4.48533 28.6777C4.25842 28.9046 3.95067 29.032 3.62977 29.032C3.30887 29.032 3.00112 28.9046 2.77421 28.6777C2.5473 28.4508 2.41983 28.143 2.41983 27.8221V19.1275L3.32583 18.523L3.67139 18.8685C3.98125 19.1784 4.40151 19.3524 4.83971 19.3524C5.27791 19.3524 5.69817 19.1784 6.00803 18.8685L10.6474 14.2291V24.1923ZM17.7067 4.83318C17.835 4.96159 17.907 5.13567 17.907 5.31716C17.907 5.49866 17.835 5.67273 17.7067 5.80114L5.32369 18.1842C5.19238 18.3068 5.0194 18.3751 4.83971 18.3751C4.66003 18.3751 4.48705 18.3068 4.35573 18.1842L1.16826 14.9967C1.04 14.8683 0.967948 14.6942 0.967948 14.5127C0.967948 14.3312 1.04 14.1572 1.16826 14.0288L13.5513 1.64571C13.6797 1.51745 13.8538 1.4454 14.0353 1.4454C14.2168 1.4454 14.3908 1.51745 14.5193 1.64571L17.7067 4.83318ZM16.3777 17.1456C16.0952 16.8615 15.8714 16.5245 15.7192 16.1539C15.567 15.7832 15.4893 15.3862 15.4906 14.9856C15.4919 14.5849 15.5722 14.1884 15.7268 13.8188C15.8814 13.4492 16.1074 13.1136 16.3918 12.8314L21.7867 6.96268C22.094 6.65425 22.2666 6.23657 22.2666 5.80114C22.2666 5.36571 22.094 4.94802 21.7867 4.63959L19.5604 2.4133C19.2451 2.11156 18.8255 1.94314 18.3891 1.94314C17.9527 1.94314 17.5332 2.11156 17.2179 2.4133L16.9372 2.69401L16.1716 1.92932L16.2466 1.85431C16.8158 1.28645 17.587 0.967547 18.3911 0.967547C19.1951 0.967547 19.9663 1.28645 20.5356 1.85431L22.351 3.67164C22.6321 3.95283 22.8548 4.28684 23.0063 4.65445C23.1578 5.02206 23.2351 5.416 23.2338 5.8136C23.2324 6.2112 23.1524 6.60461 22.9984 6.97118C22.8444 7.33775 22.6195 7.67024 22.3365 7.94951L16.9391 13.8187C16.6273 14.131 16.4521 14.5544 16.4521 14.9957C16.4521 15.4371 16.6273 15.8604 16.9391 16.1728L18.1893 17.4166L17.4231 18.1852L16.3777 17.1456ZM17.911 20.124L17.9071 19.0689L19.0735 17.9006L20.13 17.9035L17.911 20.124ZM19.0241 21.9147C18.8954 21.8522 18.758 21.8093 18.6166 21.7874L18.1147 21.2884L21.2983 18.1048L21.8021 18.6086C21.8239 18.7481 21.8662 18.8836 21.9275 19.0108L19.0241 21.9147ZM24.3406 27.2384C24.212 27.1758 24.0749 27.1327 23.9336 27.1107L19.8357 23.007C19.8138 22.8656 19.7709 22.7283 19.7085 22.5995L22.6123 19.6956C22.7425 19.7594 22.8815 19.8031 23.0247 19.8253L27.122 23.929C27.1438 24.0686 27.1862 24.2041 27.2479 24.3312L24.3406 27.2384ZM29.0386 26.4186L27.7802 27.6769C27.7614 27.6906 27.7438 27.7058 27.7275 27.7224L26.4183 29.032H25.8511L25.1508 28.3312C25.1287 28.19 25.0856 28.0528 25.023 27.9242L27.9269 25.0204C28.0568 25.0843 28.1956 25.1281 28.3387 25.1501L29.0386 25.8518V26.4186Z" fill="#FF5E14"/>
</svg>
