<svg width="30" height="30" viewBox="0 0 30 30" fill="none" xmlns="http://www.w3.org/2000/svg">
<path d="M29.9999 18.442C29.9999 17.6352 29.6674 16.8765 29.0637 16.3055C28.6948 15.9567 28.4917 15.4927 28.4917 14.9992C28.4917 14.5056 28.6948 14.0416 29.0633 13.6932C29.6674 13.123 30 12.3646 30 11.5578C30 10.751 29.6674 9.99264 29.0641 9.42316C28.3023 8.70158 28.3021 7.52859 29.0634 6.80871C29.883 6.0348 30.1565 4.81119 29.7285 3.83303C29.3208 2.90121 28.3823 2.36678 27.1537 2.36678H10.1618V1.64062C10.1618 0.735996 9.38348 0 8.42683 0H1.73491C0.77826 0 0 0.735996 0 1.64062V28.3594C0 29.264 0.778322 30 1.73491 30H8.42683C9.38348 30 10.1618 29.264 10.1618 28.3594V27.6332H27.1537C28.3818 27.6332 29.3201 27.099 29.728 26.1677C30.1565 25.1895 29.8833 23.965 29.0637 23.1899C28.3019 22.4696 28.3019 21.2975 29.0632 20.5775C29.6673 20.0074 29.9999 19.249 29.9999 18.442ZM1.23927 4.71621H8.92254V25.2821H1.23927V4.71621ZM1.73491 1.17188H8.42683C8.69557 1.17188 8.92254 1.38656 8.92254 1.64062V3.54434H1.23927V1.64062C1.23927 1.38656 1.46624 1.17188 1.73491 1.17188ZM8.92254 28.3594C8.92254 28.6134 8.69557 28.8281 8.42683 28.8281H1.73491C1.46624 28.8281 1.23927 28.6134 1.23927 28.3594V26.454H8.92254V28.3594ZM28.1873 19.7486C27.5844 20.3187 27.2524 21.0769 27.2524 21.8836C27.2524 22.6902 27.5844 23.4485 28.1873 24.0186C28.6547 24.4605 28.8211 25.1759 28.5831 25.7194C28.3704 26.2048 27.8761 26.4614 27.1537 26.4614H10.1618V3.53865H27.1537C27.8765 3.53865 28.3709 3.79535 28.5833 4.28104C28.821 4.82426 28.6546 5.53852 28.1873 5.97973C26.943 7.15641 26.9428 9.07254 28.1878 10.2518C28.5572 10.6006 28.7607 11.0644 28.7607 11.5578C28.7607 12.0512 28.5572 12.515 28.1873 12.8642C27.5844 13.4343 27.2524 14.1926 27.2524 14.9992C27.2524 15.8058 27.5844 16.564 28.1873 17.1342C28.5571 17.4838 28.7607 17.9483 28.7607 18.442C28.7607 18.9356 28.5572 19.3994 28.1873 19.7486Z" fill="#FF5E14"/>
</svg>
