<svg width="32" height="30" viewBox="0 0 32 30" fill="none" xmlns="http://www.w3.org/2000/svg">
<path d="M27.7966 15.0385H4.2057C4.06425 15.0385 3.92859 14.9793 3.82857 14.874C3.72855 14.7686 3.67236 14.6257 3.67236 14.4768V8.35912C3.67239 8.21014 3.7286 8.06728 3.82863 7.96195L7.56196 4.02959C7.66196 3.92423 7.79759 3.86502 7.93903 3.86499H24.0638C24.2053 3.86502 24.3409 3.92423 24.4409 4.02959L28.1742 7.96195C28.2743 8.06728 28.3305 8.21014 28.3305 8.35912V14.4768C28.3305 14.5506 28.3167 14.6237 28.2898 14.6919C28.263 14.7601 28.2237 14.822 28.1741 14.8742C28.1245 14.9264 28.0657 14.9677 28.0009 14.9959C27.9361 15.0241 27.8667 15.0386 27.7966 15.0385ZM4.7369 13.915H27.2633V8.59169L23.843 4.98908H8.15716L4.73903 8.59169L4.7369 13.915Z" fill="#FF5E14"/>
<path d="M15.9473 4.16711H17.0139V14.4766H15.9473V4.16711Z" fill="#FF5E14"/>
<path d="M18.0449 11.3475L18.7992 10.5531L20.6508 12.5035L19.8966 13.2979L18.0449 11.3475Z" fill="#FF5E14"/>
<path d="M18.2407 8.49915L18.9949 7.70481L23.5491 12.5018L22.7949 13.2961L18.2407 8.49915Z" fill="#FF5E14"/>
<path d="M21.3745 20.9516H16.4806C16.3392 20.9516 16.2035 20.8924 16.1035 20.7871C16.0035 20.6817 15.9473 20.5388 15.9473 20.3898V18.3186C15.9473 18.1696 16.0035 18.0267 16.1035 17.9214C16.2035 17.816 16.3392 17.7568 16.4806 17.7568H21.3745C21.5159 17.7568 21.6516 17.816 21.7516 17.9214C21.8516 18.0267 21.9078 18.1696 21.9078 18.3186V20.3898C21.9078 20.5388 21.8516 20.6817 21.7516 20.7871C21.6516 20.8924 21.5159 20.9516 21.3745 20.9516ZM17.0139 19.8281H20.8411V18.8804H17.0139V19.8281Z" fill="#FF5E14"/>
<path d="M9.0969 20.9516H4.2057C4.06425 20.9516 3.92859 20.8924 3.82857 20.7871C3.72855 20.6817 3.67236 20.5388 3.67236 20.3898V18.3186C3.67236 18.1696 3.72855 18.0267 3.82857 17.9214C3.92859 17.816 4.06425 17.7568 4.2057 17.7568H9.09903C9.24048 17.7568 9.37613 17.816 9.47615 17.9214C9.57617 18.0267 9.63236 18.1696 9.63236 18.3186V20.3898C9.63236 20.4638 9.6185 20.537 9.59156 20.6053C9.56463 20.6736 9.52515 20.7357 9.4754 20.7879C9.42565 20.8401 9.3666 20.8814 9.30165 20.9095C9.2367 20.9376 9.16711 20.9519 9.0969 20.9516ZM4.7369 19.8281H8.56356V18.8804H4.73903L4.7369 19.8281Z" fill="#FF5E14"/>
<path d="M31.4667 30H6.0768C5.93535 30 5.7997 29.9408 5.69968 29.8355C5.59966 29.7301 5.54347 29.5872 5.54347 29.4382C5.54262 28.0389 5.0145 26.6971 4.0751 25.7077C3.1357 24.7182 1.86184 24.1619 0.533333 24.161C0.391885 24.161 0.256229 24.1018 0.15621 23.9965C0.0561903 23.8911 0 23.7482 0 23.5992V6.75749C3.02066e-05 6.60851 0.0562403 6.46564 0.156267 6.36032L6.03893 0.164598C6.13893 0.0592387 6.27456 3.1817e-05 6.416 0H25.5845C25.726 3.1817e-05 25.8616 0.0592387 25.9616 0.164598L31.8437 6.36032C31.9438 6.46564 32 6.60851 32 6.75749V29.4382C32 29.5872 31.9438 29.7301 31.8438 29.8355C31.7438 29.9408 31.6081 30 31.4667 30ZM6.58667 28.8765H30.9333V6.99006L25.3637 1.12522H6.6368L1.06667 6.99006V23.0622C2.48784 23.1962 3.81915 23.8518 4.82809 24.9145C5.83702 25.9772 6.45945 27.3795 6.58667 28.8765Z" fill="#FF5E14"/>
<path d="M5.78613 26.366H31.4667V27.4895H5.78613V26.366Z" fill="#FF5E14"/>
</svg>
