<?xml version="1.0" encoding="UTF-8" standalone="no"?>
<!DOCTYPE svg PUBLIC "-//W3C//DTD SVG 1.1//EN" "http://www.w3.org/Graphics/SVG/1.1/DTD/svg11.dtd">
<svg width="100%" height="100%" viewBox="0 0 459 107" version="1.1" xmlns="http://www.w3.org/2000/svg" xmlns:xlink="http://www.w3.org/1999/xlink" xml:space="preserve" xmlns:serif="http://www.serif.com/" style="fill-rule:evenodd;clip-rule:evenodd;stroke-miterlimit:10;">
    <g transform="matrix(0.75,0,0,0.75,0,0)">
        <g transform="matrix(1,0,0,1,-29.0717,-310.549)">
            <g transform="matrix(1,0,0,1,0,167.795)">
                <path d="M201.999,221.802L224.618,221.802C224.618,224.532 227.456,226.157 235.735,226.223C242.636,226.353 245.243,224.988 245.243,223.622C245.243,223.233 245.78,221.412 240.413,220.892L231.902,219.787C219.71,218.227 203.379,217.967 203.379,202.626C203.379,191.511 213.807,184.556 235.89,184.556C255.518,184.556 269.167,188.456 268.476,205.422L246.01,205.422C245.397,202.692 242.407,201.067 235.353,201.067C229.372,201.067 227.609,202.432 227.609,203.732C227.609,204.121 227.456,205.876 231.211,206.267L237.96,207.177C251.07,208.996 270.316,208.347 270.316,224.532C270.316,237.143 259.123,242.928 235.735,242.798C211.736,242.733 201.155,236.883 201.999,221.802" style="fill:rgb(43,52,69);fill-rule:nonzero;"/>
            </g>
            <g transform="matrix(1,0,0,1,0,167.665)">
                <path d="M315.933,219.528L311.256,206.463L307.039,206.463L302.362,219.528L315.933,219.528ZM321.531,235.194L296.764,235.194L294.618,241.109L268.624,241.109L291.474,186.507L326.745,186.507L349.594,241.109L323.6,241.109L321.531,235.194Z" style="fill:rgb(43,52,69);fill-rule:nonzero;"/>
            </g>
            <g transform="matrix(1,0,0,1,0,167.795)">
                <path d="M347.44,221.802L370.06,221.802C370.06,224.532 372.897,226.157 381.177,226.223C388.078,226.353 390.685,224.988 390.685,223.622C390.685,223.233 391.222,221.412 385.854,220.892L377.343,219.787C365.152,218.227 348.82,217.967 348.82,202.626C348.82,191.511 359.248,184.556 381.331,184.556C400.96,184.556 414.608,188.456 413.918,205.422L391.452,205.422C390.838,202.692 387.848,201.067 380.794,201.067C374.813,201.067 373.05,202.432 373.05,203.732C373.05,204.121 372.897,205.876 376.653,206.267L383.401,207.177C396.512,208.996 415.758,208.347 415.758,224.532C415.758,237.143 404.563,242.928 381.177,242.798C357.178,242.733 346.597,236.883 347.44,221.802" style="fill:rgb(43,52,69);fill-rule:nonzero;"/>
            </g>
            <g transform="matrix(1,0,0,1,0,167.665)">
                <path d="M461.375,219.528L456.698,206.463L452.48,206.463L447.804,219.528L461.375,219.528ZM466.973,235.194L442.206,235.194L440.06,241.109L414.066,241.109L436.916,186.507L472.187,186.507L495.036,241.109L469.043,241.109L466.973,235.194Z" style="fill:rgb(43,52,69);fill-rule:nonzero;"/>
            </g>
            <g transform="matrix(1,0,0,1,0,167.665)">
                <path d="M489.816,213.807C489.816,196.061 504.384,184.686 526.62,184.686C543.412,184.686 560.587,190.861 562.044,210.947L538.122,210.947C536.971,205.617 532.908,203.081 526.62,203.081C520.179,203.081 514.888,207.046 514.888,213.807C514.888,220.567 520.179,224.533 526.62,224.533C532.908,224.533 536.971,221.932 538.122,216.472L562.044,216.472C560.587,236.688 543.565,242.928 526.62,242.928C504.384,242.928 489.816,231.488 489.816,213.807" style="fill:rgb(43,52,69);fill-rule:nonzero;"/>
            </g>
            <g transform="matrix(1,0,0,1,0,167.665)">
                <path d="M614.942,213.807C614.942,206.527 609.115,203.081 602.751,203.081C596.31,203.081 590.559,206.527 590.559,213.807C590.559,221.022 596.31,224.533 602.751,224.533C609.115,224.533 614.942,221.022 614.942,213.807M565.487,213.807C565.487,196.061 579.825,184.686 602.751,184.686C625.6,184.686 639.938,196.061 639.938,213.807C639.938,231.488 625.6,242.928 602.751,242.928C579.825,242.928 565.487,231.488 565.487,213.807" style="fill:rgb(43,52,69);fill-rule:nonzero;"/>
            </g>
        </g>
        <g transform="matrix(1,0,0,1,-349.717,-184.684)">
            <g transform="matrix(1,0,0,1,0,-72.0022)">
                <path d="M444.477,352.796C443.647,353.626 442.767,354.406 441.847,355.146L436.927,351.166L432.847,354.336L433.237,360.166C431.248,360.956 429.157,361.566 426.987,361.966L423.267,356.246L418.097,356.246L415.447,362.116C413.137,361.746 410.907,361.146 408.777,360.336L409.017,353.746L404.427,351.166L399.297,354.796C397.607,353.396 396.047,351.826 394.667,350.126L398.517,345.336L396.267,340.086L389.017,340.086C388.247,337.906 387.687,335.616 387.387,333.256L392.427,330.996L392.427,325.746C392.427,325.746 389.177,323.406 387.747,322.266C388.167,320.106 388.807,318.016 389.627,316.026L395.267,315.666L398.807,312.126L394.897,307.316C395.517,306.566 396.167,305.856 396.847,305.166L405.857,314.176C402.727,318.066 400.847,323.026 400.847,328.416C400.847,340.976 411.037,351.166 423.597,351.166C428.987,351.166 433.947,349.286 437.837,346.156L444.477,352.796Z" style="fill:rgb(255,189,43);fill-rule:nonzero;"/>
            </g>
            <g transform="matrix(1,0,0,1,463.236,265.034)">
                <path d="M0,-4.31L-1.369,2.38L-7.859,4.54L-12.97,-0L-11.6,-6.69L-5.109,-8.85L0,-4.31Z" style="fill:none;fill-rule:nonzero;stroke:rgb(67,75,94);stroke-width:1px;"/>
            </g>
            <g transform="matrix(69.91,0,0,-69.91,398.857,350.431)">
                <clipPath id="_clip1">
                    <path d="M0,1.851L0.121,1.722C0.18,1.753 0.248,1.77 0.32,1.77C0.535,1.77 0.715,1.614 0.751,1.409C0.693,1.381 0.653,1.321 0.653,1.252C0.653,1.156 0.73,1.078 0.826,1.078C0.922,1.078 1,1.156 1,1.252C1,1.311 0.971,1.362 0.926,1.394C0.896,1.701 0.635,1.942 0.32,1.942C0.203,1.942 0.093,1.909 0,1.851ZM0.735,1.222L0.755,1.317L0.848,1.348L0.921,1.283L0.901,1.187L0.808,1.157L0.735,1.222Z" clip-rule="nonzero"/>
                </clipPath>
                <g clip-path="url(#_clip1)">
                    <rect x="-5.705" y="-3.502" width="12.042" height="8.515" style="fill:url(#_Linear2);"/>
                </g>
            </g>
            <g transform="matrix(114.345,7.10543e-15,7.10543e-15,-114.345,407.967,228.12)">
                <clipPath id="_clip3">
                    <path d="M-0.057,0.356C-0.075,0.371 -0.098,0.379 -0.123,0.379C-0.183,0.379 -0.231,0.331 -0.231,0.272L-0.133,0.314L-0.08,0.283L-0.092,0.222L-0.183,0.183C-0.166,0.172 -0.146,0.165 -0.123,0.165C-0.066,0.165 -0.019,0.21 -0.017,0.267C0.025,0.278 0.069,0.284 0.115,0.284C0.407,0.284 0.644,0.046 0.644,-0.245C0.644,-0.361 0.607,-0.468 0.544,-0.555L0.609,-0.628C0.691,-0.522 0.74,-0.389 0.74,-0.245C0.74,0.099 0.46,0.38 0.115,0.38C0.055,0.38 -0.002,0.371 -0.057,0.356Z" clip-rule="nonzero"/>
                </clipPath>
                <g clip-path="url(#_clip3)">
                    <rect x="-3.568" y="-3.211" width="7.363" height="5.206" style="fill:url(#_Linear4);"/>
                </g>
            </g>
            <g transform="matrix(1,0,0,1,0,-62.502)">
                <path d="M471.427,370.086L466.347,374.166L455.347,367.166L445.847,372.296L445.717,385.296L432.217,389.036L425.597,377.666L415.927,377.536L409.477,389.036L395.597,385.166L395.847,371.666L386.847,367.166L375.977,373.536L365.477,363.666L372.847,352.616L367.477,343.796L353.847,343.416L349.717,329.916L361.597,323.536L361.597,313.036L349.717,306.416L354.217,293.036L367.477,293.666L373.217,284.796L365.477,274.036L368.767,268.746L390.427,288.746L391.067,289.386C383.687,296.956 379.137,307.286 379.137,318.686C379.137,341.856 397.927,360.646 421.097,360.646C432.427,360.646 442.717,356.146 450.267,348.836L471.427,370.086Z" style="fill:rgb(67,75,94);fill-rule:nonzero;"/>
            </g>
        </g>
    </g>
    <defs>
        <linearGradient id="_Linear2" x1="0" y1="0" x2="1" y2="0" gradientUnits="userSpaceOnUse" gradientTransform="matrix(1,0,0,-1,0,1.51025)"><stop offset="0" style="stop-color:rgb(67,75,94);stop-opacity:1"/><stop offset="1" style="stop-color:rgb(47,52,71);stop-opacity:1"/></linearGradient>
        <linearGradient id="_Linear4" x1="0" y1="0" x2="1" y2="0" gradientUnits="userSpaceOnUse" gradientTransform="matrix(-0.722958,0.690892,0.690892,0.722958,0.615607,-0.246853)"><stop offset="0" style="stop-color:rgb(255,115,0);stop-opacity:1"/><stop offset="1" style="stop-color:rgb(229,197,0);stop-opacity:1"/></linearGradient>
    </defs>
</svg>
