<svg width="80" height="80" viewBox="0 0 80 80" fill="none" xmlns="http://www.w3.org/2000/svg">
<path d="M74.1935 0H5.80645C2.60516 0 0 2.60452 0 5.80645V30.3226C0 33.5245 2.60516 36.129 5.80645 36.129H47.7419C48.4542 36.129 49.0323 35.551 49.0323 34.8387C49.0323 34.1264 48.4542 33.5484 47.7419 33.5484H12.2581V25.8064C12.2581 24.3832 13.4155 23.2258 14.8387 23.2258H47.0968C47.809 23.2258 48.3871 22.6477 48.3871 21.9355C48.3871 21.2232 47.809 20.6452 47.0968 20.6452H14.8387C11.9929 20.6452 9.67742 22.9606 9.67742 25.8064V33.5484H5.80645C4.02774 33.5484 2.58065 32.1013 2.58065 30.3226V5.80645C2.58065 4.02774 4.02774 2.58065 5.80645 2.58065H74.1935C75.9723 2.58065 77.4193 4.02774 77.4193 5.80645V15.4839C77.4193 16.1961 77.9974 16.7742 78.7097 16.7742C79.4219 16.7742 80 16.1961 80 15.4839V5.80645C80 2.60452 77.3948 0 74.1935 0Z" fill="#FF5E14"/>
<path d="M16.1302 27.0967C15.4179 27.0967 14.8398 27.6747 14.8398 28.387C14.8398 29.0993 15.4179 29.6773 16.1302 29.6773H46.4527C47.165 29.6773 47.7431 29.0993 47.7431 28.387C47.7431 27.6747 47.165 27.0967 46.4527 27.0967H16.1302Z" fill="#FF5E14"/>
<path d="M12.2584 5.16138C10.8352 5.16138 9.67773 6.3188 9.67773 7.74202V10.9678C9.67773 12.3911 10.8352 13.5485 12.2584 13.5485H23.8713C25.2945 13.5485 26.4519 12.3911 26.4519 10.9678V7.74202C26.4519 6.3188 25.2945 5.16138 23.8713 5.16138H12.2584ZM12.2584 10.9678V7.74202H23.8713L23.8726 10.9678H12.2584Z" fill="#FF5E14"/>
<path d="M70.3221 9.03216C70.3221 7.96507 69.4538 7.09668 68.3867 7.09668C67.3196 7.09668 66.4512 7.96507 66.4512 9.03216C66.4512 10.0993 67.3196 10.9676 68.3867 10.9676C69.4538 10.9676 70.3221 10.0993 70.3221 9.03216Z" fill="#FF5E14"/>
<path d="M61.9355 10.9676C63.0026 10.9676 63.871 10.0993 63.871 9.03216C63.871 7.96507 63.0026 7.09668 61.9355 7.09668C60.8684 7.09668 60 7.96507 60 9.03216C60 10.0993 60.8684 10.9676 61.9355 10.9676Z" fill="#FF5E14"/>
<path d="M57.4198 9.03216C57.4198 7.96507 56.5514 7.09668 55.4843 7.09668C54.4172 7.09668 53.5488 7.96507 53.5488 9.03216C53.5488 10.0993 54.4172 10.9676 55.4843 10.9676C56.5514 10.9676 57.4198 10.0993 57.4198 9.03216Z" fill="#FF5E14"/>
<path d="M80 27.742C80 21.7111 76.3948 16.3265 70.8148 14.0246C70.4174 13.8607 69.9632 13.9053 69.6052 14.1453C69.2471 14.3846 69.0323 14.7872 69.0323 15.2175V27.0969H61.2903V15.2169C61.2903 14.7865 61.0755 14.384 60.7174 14.1446C60.3594 13.9046 59.9058 13.8601 59.5077 14.024C53.9277 16.3259 50.3226 21.7111 50.3226 27.742C50.3226 33.4807 53.5864 38.6336 58.7097 41.1027V44.5162H50.1277C47.4129 44.5162 44.8594 45.5736 42.9394 47.4936C41.9645 48.4685 40.6677 49.0052 39.2897 49.0052H36.129V47.0969C36.129 45.6736 34.9716 44.5162 33.5484 44.5162H1.29032C0.578065 44.5162 0 45.0943 0 45.8065C0 46.5188 0.578065 47.0969 1.29032 47.0969H33.5484V70.3227H1.29032C0.578065 70.3227 0 70.9007 0 71.613C0 72.3253 0.578065 72.9033 1.29032 72.9033H33.5484C34.9716 72.9033 36.129 71.7459 36.129 70.3227V68.3872H39.2632C40.6419 68.3872 41.9381 68.924 42.94 69.9259C44.86 71.8459 47.4129 72.9033 50.1277 72.9033H58.7097V73.3717C58.7097 76.862 61.3561 79.7678 64.7342 79.9859C64.8793 79.9956 65.0239 80.0001 65.1677 80.0001C66.8129 80.0001 68.3632 79.3891 69.5729 78.2556C70.869 77.0401 71.6129 75.3246 71.6129 73.5478V72.9027H72.9032C75.0381 72.9027 76.7742 71.1665 76.7742 69.0317V52.2582C76.7742 50.553 75.6652 49.1053 74.131 48.5898C74.1677 48.3117 74.1935 48.0304 74.1935 47.742V47.0969C74.1935 45.6736 73.0361 44.5162 71.6129 44.5162V41.1027C76.7361 38.6336 80 33.4801 80 27.742ZM50.1277 70.3227C48.1019 70.3227 46.1968 69.5336 44.7374 68.0743C43.2748 66.6117 41.331 65.8065 39.2632 65.8065H36.129V51.5859H39.2897C41.3581 51.5859 43.3019 50.7801 44.7639 49.3182C46.1968 47.8859 48.1019 47.0969 50.1277 47.0969H71.6129V47.742C71.6129 49.8769 69.8768 51.613 67.7419 51.613H60C59.2877 51.613 58.7097 52.1911 58.7097 52.9033C58.7097 56.4607 55.8155 59.3549 52.2581 59.3549C50.7935 59.3549 49.4135 58.8769 48.2665 57.9724C47.7071 57.5311 46.8955 57.6272 46.4542 58.1865C46.0129 58.7465 46.1084 59.5575 46.6684 59.9988C48.2755 61.2659 50.2084 61.9356 52.2581 61.9356C54.7845 61.9356 57.069 60.8898 58.7097 59.2123V70.3227H50.1277ZM69.0323 73.5485C69.0323 74.6298 68.5974 75.633 67.8077 76.3736C67.0187 77.113 65.9852 77.4814 64.9013 77.4111C62.8768 77.2801 61.2903 75.5059 61.2903 73.3717V54.1936H63.2258V69.0323C63.2258 71.1672 64.9619 72.9033 67.0968 72.9033H69.0323V73.5485ZM74.1935 52.2582V69.0323C74.1935 69.744 73.6148 70.3227 72.9032 70.3227H67.0968C66.3852 70.3227 65.8064 69.744 65.8064 69.0323V54.1936H67.7419C70.0974 54.1936 72.1555 52.9207 73.2819 51.0311C73.8084 51.1943 74.1935 51.6794 74.1935 52.2582ZM69.8303 39.0736C69.3471 39.273 69.0323 39.744 69.0323 40.2665V44.5162H61.2903V40.2672C61.2903 39.7446 60.9755 39.2736 60.4923 39.0743C55.8819 37.1717 52.9032 32.724 52.9032 27.742C52.9032 23.4356 55.129 19.5285 58.7097 17.3194V27.0969C58.7097 28.5201 59.8671 29.6775 61.2903 29.6775H69.0323C70.4555 29.6775 71.6129 28.5201 71.6129 27.0969V17.3188C75.1935 19.5278 77.4193 23.4349 77.4193 27.7414C77.4193 32.724 74.4406 37.1717 69.8303 39.0736Z" fill="#FF5E14"/>
</svg>
