<svg width="80" height="80" viewBox="0 0 80 80" fill="none" xmlns="http://www.w3.org/2000/svg">
<path d="M72.0006 25.7423V10.6662C72.0006 9.19339 70.8067 7.99948 69.3339 7.99948H62.6672C61.1944 7.99948 60.0005 9.19339 60.0005 10.6662V15.7875L41.7164 0.619421C40.7214 -0.206474 39.2793 -0.206474 38.2844 0.619421L0.972088 31.573C0.411662 32.0373 0.0637113 32.7092 0.00791105 33.4349C-0.0478892 34.1606 0.193241 34.8778 0.676086 35.4223L4.00011 39.173C4.95941 40.2686 6.61883 40.3954 7.73347 39.4584L8.00014 39.229V77.3333C8.00014 78.8061 9.19406 80 10.6668 80H69.3339C70.8067 80 72.0006 78.8061 72.0006 77.3333V39.229L72.2766 39.4584C73.3898 40.3892 75.0422 40.2626 76.0006 39.173L79.322 35.421C79.8048 34.8767 80.0459 34.1597 79.9901 33.4342C79.9343 32.7088 79.5863 32.0371 79.026 31.573L72.0006 25.7423ZM62.6672 10.6662H69.3339V23.5303L62.6672 17.9995V10.6662ZM69.3339 77.3333H10.6668V37.017L40.0004 12.6835L69.3339 37.017V77.3333ZM74.0073 37.405C73.9995 37.4126 73.9871 37.4126 73.9793 37.405L40.8524 9.92482C40.3585 9.51452 39.6423 9.51452 39.1484 9.92482L6.00012 37.405L2.67477 33.625L40.0124 2.6661L77.334 33.6543L74.0073 37.405Z" fill="#FF5E14"/>
<path d="M37.303 29.6702C35.1001 27.4535 32.1132 26.1928 28.9882 26.1609C27.8977 26.1718 26.9128 26.8149 26.4642 27.8089C26.0426 28.806 26.2707 29.9594 27.0402 30.7209L30.2402 33.9116L29.5296 38.861L24.5802 39.5717L21.3895 36.3716C20.6275 35.6029 19.4744 35.3754 18.4775 35.797C17.4635 36.2218 16.8106 37.2217 16.8295 38.321C16.872 41.7859 18.4158 45.0619 21.0608 47.3004C23.7058 49.539 27.192 50.5199 30.6162 49.9891L29.9669 51.9264C29.6829 52.7722 29.0239 53.4391 28.1816 53.7331C27.3612 54.0005 26.6153 54.4573 26.0042 55.0664L17.9508 63.1198C15.3738 65.6951 15.278 69.8418 17.7335 72.5332C18.9646 73.877 20.6965 74.652 22.5188 74.6746H22.6895C24.6184 74.6734 26.4685 73.9094 27.8362 72.5492L35.6483 64.7238C36.2667 64.1228 36.7302 63.3807 36.999 62.5612C37.2847 61.7144 37.9519 61.0512 38.8003 60.7705L41.2003 59.9705L41.5737 60.3438C40.8809 63.8363 41.776 67.4561 44.0168 70.2231C46.2576 72.9901 49.6122 74.6182 53.1724 74.6666H53.2004C54.2886 74.6715 55.2725 74.0198 55.6924 73.0159C56.114 72.0196 55.8858 70.867 55.1164 70.1065L51.9164 66.9145L52.6257 61.9638L57.5764 61.2545L60.7685 64.4545C61.5286 65.2246 62.6816 65.4529 63.6778 65.0305C64.6945 64.6068 65.3504 63.6064 65.3338 62.5052C65.2861 58.9438 63.6576 55.5881 60.8896 53.3468C58.1215 51.1056 54.5004 50.2109 51.0071 50.9051L48.2444 48.1424L51.6097 44.7717L55.2924 44.0304C56.0725 43.8842 56.7484 43.4012 57.1391 42.7103L61.0578 35.6436C61.6376 34.5984 61.4549 33.2956 60.6098 32.4503L58.2631 30.1036C57.42 29.2666 56.125 29.0883 55.0871 29.6662L48.0337 33.5796C47.3385 33.9576 46.8471 34.6249 46.6924 35.401L45.9497 39.105L42.5857 42.4797L40.5856 40.4797C41.3602 36.5547 40.1293 32.5017 37.303 29.6702ZM47.8004 41.0303C48.1985 40.6566 48.4695 40.1674 48.575 39.6317L49.3137 35.925L56.3778 31.9996L58.7285 34.3543L54.8004 41.413L51.0671 42.1623C50.5566 42.2669 50.0877 42.5181 49.7177 42.885L46.359 46.2664L44.471 44.3784L47.8004 41.0303ZM37.955 58.2398C36.3075 58.7913 35.0152 60.0851 34.4656 61.7332C34.3291 62.1499 34.0929 62.527 33.7776 62.8318L25.9509 70.6665C25.0535 71.5473 23.8401 72.0311 22.5828 72.0092C21.4896 72.0001 20.4486 71.5404 19.7055 70.7385C18.201 69.0974 18.2599 66.5614 19.8388 64.9918L27.8776 56.9531C28.1957 56.6365 28.5839 56.3994 29.0109 56.2611C30.6485 55.7022 31.9347 54.416 32.4936 52.7784L32.8763 51.6344L39.0963 57.8545L37.955 58.2398ZM49.6444 53.3158C49.9809 53.6522 50.4713 53.7838 50.9311 53.6611C54.1491 52.8028 57.5807 53.7228 59.9378 56.0758C61.6696 57.7953 62.6507 60.1301 62.6671 62.5705L59.0031 58.8985C58.7062 58.6005 58.2861 58.4602 57.8698 58.5198L51.2697 59.4665C50.6836 59.5505 50.2231 60.011 50.1391 60.5971L49.1924 67.1972C49.1328 67.6135 49.2731 68.0336 49.5711 68.3305L53.2004 71.9999C50.3261 71.958 47.6318 70.5931 45.8977 68.3004C44.1636 66.0078 43.5836 63.0436 44.3257 60.2665C44.4484 59.8067 44.3168 59.3163 43.9803 58.9798L32.5136 47.513C32.2636 47.263 31.9245 47.1224 31.5709 47.1224C31.4552 47.1224 31.34 47.1376 31.2282 47.1677C28.0098 48.0239 24.5788 47.1042 22.2202 44.753C20.4904 43.0327 19.5116 40.6979 19.4975 38.2583L23.1602 41.9303C23.4571 42.2283 23.8772 42.3686 24.2935 42.309L30.8936 41.3623C31.4797 41.2783 31.9402 40.8178 32.0243 40.2317L32.9709 33.6316C33.0305 33.2153 32.8902 32.7952 32.5923 32.4983L28.9536 28.8302C31.383 28.8556 33.7047 29.8366 35.4163 31.5609C37.768 33.9182 38.6874 37.3489 37.8296 40.5663C37.7074 41.0257 37.839 41.5154 38.175 41.8517L49.6444 53.3158Z" fill="#FF5E14"/>
</svg>
