<svg width="70" height="80" viewBox="0 0 70 80" fill="none" xmlns="http://www.w3.org/2000/svg">
<path d="M60.9257 30H59.6294V7.5C59.6294 7.16848 59.4928 6.85054 59.2497 6.61612C59.0066 6.3817 58.6769 6.25 58.3331 6.25H11.6664C11.3226 6.25 10.9929 6.3817 10.7498 6.61612C10.5067 6.85054 10.3701 7.16848 10.3701 7.5V65C10.3701 65.3315 10.5067 65.6495 10.7498 65.8839C10.9929 66.1183 11.3226 66.25 11.6664 66.25H58.3331C58.6769 66.25 59.0066 66.1183 59.2497 65.8839C59.4928 65.6495 59.6294 65.3315 59.6294 65V42.5H60.9257C61.2695 42.5 61.5992 42.3683 61.8423 42.1339C62.0854 41.8995 62.222 41.5815 62.222 41.25V31.25C62.222 30.9185 62.0854 30.6005 61.8423 30.3661C61.5992 30.1317 61.2695 30 60.9257 30ZM57.0368 63.75H12.9627V8.75H57.0368V30H55.7405C55.3967 30 55.067 30.1317 54.8239 30.3661C54.5808 30.6005 54.4442 30.9185 54.4442 31.25V41.25C54.4442 41.5815 54.5808 41.8995 54.8239 42.1339C55.067 42.3683 55.3967 42.5 55.7405 42.5H57.0368V63.75ZM59.6294 40H57.0368V32.5H59.6294V40Z" fill="#FF5E14"/>
<path d="M25.9262 50H44.0743C44.4181 50 44.7478 49.8683 44.9909 49.6339C45.2341 49.3995 45.3706 49.0815 45.3706 48.75V41.25C45.3706 40.9185 45.2341 40.6005 44.9909 40.3661C44.7478 40.1317 44.4181 40 44.0743 40H25.9262C25.5824 40 25.2527 40.1317 25.0096 40.3661C24.7665 40.6005 24.6299 40.9185 24.6299 41.25V48.75C24.6299 49.0815 24.7665 49.3995 25.0096 49.6339C25.2527 49.8683 25.5824 50 25.9262 50ZM27.2225 42.5H42.778V47.5H27.2225V42.5Z" fill="#FF5E14"/>
<path d="M46.6667 52.5H23.3334C22.9896 52.5 22.6599 52.6317 22.4168 52.8661C22.1737 53.1005 22.0371 53.4185 22.0371 53.75C22.0371 54.0815 22.1737 54.3995 22.4168 54.6339C22.6599 54.8683 22.9896 55 23.3334 55H46.6667C47.0105 55 47.3403 54.8683 47.5834 54.6339C47.8265 54.3995 47.963 54.0815 47.963 53.75C47.963 53.4185 47.8265 53.1005 47.5834 52.8661C47.3403 52.6317 47.0105 52.5 46.6667 52.5Z" fill="#FF5E14"/>
<path d="M41.4819 57.5H28.519C28.1752 57.5 27.8454 57.6317 27.6023 57.8661C27.3592 58.1005 27.2227 58.4185 27.2227 58.75C27.2227 59.0815 27.3592 59.3995 27.6023 59.6339C27.8454 59.8683 28.1752 60 28.519 60H41.4819C41.8257 60 42.1554 59.8683 42.3985 59.6339C42.6416 59.3995 42.7782 59.0815 42.7782 58.75C42.7782 58.4185 42.6416 58.1005 42.3985 57.8661C42.1554 57.6317 41.8257 57.5 41.4819 57.5Z" fill="#FF5E14"/>
<path d="M68.7037 18.75C69.0475 18.75 69.3772 18.6183 69.6203 18.3839C69.8634 18.1495 70 17.8315 70 17.5V7.5C70 7.16848 69.8634 6.85054 69.6203 6.61612C69.3772 6.3817 69.0475 6.25 68.7037 6.25H66.1111V4.375C66.1098 3.21507 65.6313 2.10302 64.7808 1.28282C63.9302 0.46263 62.777 0.00128208 61.5741 0L8.42593 0C7.22304 0.00128208 6.0698 0.46263 5.21922 1.28282C4.36865 2.10302 3.89022 3.21507 3.88889 4.375V6.25H1.2963C0.952497 6.25 0.622779 6.3817 0.379677 6.61612C0.136574 6.85054 0 7.16848 0 7.5V17.5C0 17.8315 0.136574 18.1495 0.379677 18.3839C0.622779 18.6183 0.952497 18.75 1.2963 18.75H3.88889V53.75H1.2963C0.952497 53.75 0.622779 53.8817 0.379677 54.1161C0.136574 54.3505 0 54.6685 0 55V65C0 65.3315 0.136574 65.6495 0.379677 65.8839C0.622779 66.1183 0.952497 66.25 1.2963 66.25H3.88889V68.125C3.89022 69.2849 4.36865 70.397 5.21922 71.2172C6.0698 72.0374 7.22304 72.4987 8.42593 72.5H15.5556V78.75C15.5556 79.0815 15.6921 79.3995 15.9352 79.6339C16.1783 79.8683 16.5081 80 16.8519 80H22.037C22.3808 80 22.7106 79.8683 22.9537 79.6339C23.1968 79.3995 23.3333 79.0815 23.3333 78.75V72.5H31.1111V78.75C31.1111 79.0815 31.2477 79.3995 31.4908 79.6339C31.7339 79.8683 32.0636 80 32.4074 80H37.5926C37.9364 80 38.2661 79.8683 38.5092 79.6339C38.7523 79.3995 38.8889 79.0815 38.8889 78.75V72.5H46.6667V78.75C46.6667 79.0815 46.8032 79.3995 47.0463 79.6339C47.2894 79.8683 47.6192 80 47.963 80H53.1481C53.4919 80 53.8217 79.8683 54.0648 79.6339C54.3079 79.3995 54.4444 79.0815 54.4444 78.75V72.5H61.5741C62.777 72.4987 63.9302 72.0374 64.7808 71.2172C65.6313 70.397 66.1098 69.2849 66.1111 68.125V66.25H68.7037C69.0475 66.25 69.3772 66.1183 69.6203 65.8839C69.8634 65.6495 70 65.3315 70 65V55C70 54.6685 69.8634 54.3505 69.6203 54.1161C69.3772 53.8817 69.0475 53.75 68.7037 53.75H66.1111V18.75H68.7037ZM66.1111 8.75H67.4074V16.25H66.1111V8.75ZM3.88889 63.75H2.59259V56.25H3.88889V63.75ZM3.88889 16.25H2.59259V8.75H3.88889V16.25ZM20.7407 77.5H18.1481V72.5H20.7407V77.5ZM36.2963 77.5H33.7037V72.5H36.2963V77.5ZM51.8518 77.5H49.2593V72.5H51.8518V77.5ZM63.5185 68.125C63.5181 68.6222 63.3131 69.0988 62.9485 69.4504C62.584 69.8019 62.0896 69.9996 61.5741 70H8.42593C7.91036 69.9996 7.41603 69.8019 7.05147 69.4504C6.68691 69.0988 6.48191 68.6222 6.48148 68.125V4.375C6.48191 3.87785 6.68691 3.40117 7.05147 3.04963C7.41603 2.69809 7.91036 2.50041 8.42593 2.5H61.5741C62.0896 2.50041 62.584 2.69809 62.9485 3.04963C63.3131 3.40117 63.5181 3.87785 63.5185 4.375V68.125ZM67.4074 56.25V63.75H66.1111V56.25H67.4074Z" fill="#FF5E14"/>
<path d="M42.6632 23.2327C42.5598 23.0143 42.3935 22.8291 42.1841 22.6992C41.9747 22.5692 41.731 22.5001 41.482 22.4999H39.0611L40.1759 13.9046C40.2097 13.646 40.1588 13.3836 40.0302 13.1543C39.9017 12.925 39.7021 12.7401 39.4592 12.6256C39.2164 12.5111 38.9425 12.4727 38.6758 12.5157C38.4092 12.5587 38.1632 12.681 37.9722 12.8656L27.6019 22.8656C27.4204 23.0404 27.2967 23.2632 27.2466 23.5058C27.1965 23.7484 27.2222 23.9999 27.3204 24.2284C27.4186 24.4569 27.5849 24.6522 27.7983 24.7896C28.0116 24.9269 28.2625 25.0001 28.519 24.9999H31.1116V33.7499C31.1115 34.0042 31.192 34.2525 31.3421 34.4616C31.4922 34.6707 31.7049 34.8307 31.9518 34.9202C32.1987 35.0097 32.468 35.0244 32.7238 34.9624C32.9795 34.9005 33.2097 34.7647 33.3833 34.5734L42.4574 24.5734C42.6214 24.3925 42.728 24.1699 42.7645 23.9322C42.801 23.6945 42.7658 23.4517 42.6632 23.2327ZM33.7042 30.4234V23.7499C33.7042 23.4184 33.5676 23.1005 33.3245 22.866C33.0814 22.6316 32.7517 22.4999 32.4079 22.4999H31.6479L37.1345 17.2093L36.3065 23.5952C36.2838 23.7711 36.3001 23.9496 36.3543 24.119C36.4086 24.2883 36.4996 24.4446 36.6212 24.5774C36.7429 24.7102 36.8925 24.8166 37.06 24.8895C37.2276 24.9623 37.4093 25 37.5931 24.9999H38.6252L33.7042 30.4234Z" fill="#FF5E14"/>
</svg>
