<svg width="20" height="20" viewBox="0 0 20 20" fill="none" xmlns="http://www.w3.org/2000/svg">
<path d="M15.62 8.7501C15.19 8.7501 14.85 8.4001 14.85 7.9801C14.85 7.6101 14.48 6.8401 13.86 6.1701C13.25 5.5201 12.58 5.1401 12.02 5.1401C11.59 5.1401 11.25 4.7901 11.25 4.3701C11.25 3.9501 11.6 3.6001 12.02 3.6001C13.02 3.6001 14.07 4.1401 14.99 5.1101C15.85 6.0201 16.4 7.1501 16.4 7.9701C16.4 8.4001 16.05 8.7501 15.62 8.7501Z" fill="white"/>
<path d="M19.2298 8.75C18.7998 8.75 18.4598 8.4 18.4598 7.98C18.4598 4.43 15.5698 1.55 12.0298 1.55C11.5998 1.55 11.2598 1.2 11.2598 0.78C11.2598 0.36 11.5998 0 12.0198 0C16.4198 0 19.9998 3.58 19.9998 7.98C19.9998 8.4 19.6498 8.75 19.2298 8.75Z" fill="white"/>
<path opacity="0.4" d="M9.79 12.21L6.52 15.48C6.16 15.16 5.81 14.83 5.47 14.49C4.44 13.45 3.51 12.36 2.68 11.22C1.86 10.08 1.2 8.94 0.72 7.81C0.24 6.67 0 5.58 0 4.54C0 3.86 0.12 3.21 0.36 2.61C0.6 2 0.98 1.44 1.51 0.94C2.15 0.31 2.85 0 3.59 0C3.87 0 4.15 0.0600001 4.4 0.18C4.66 0.3 4.89 0.48 5.07 0.74L7.39 4.01C7.57 4.26 7.7 4.49 7.79 4.71C7.88 4.92 7.93 5.13 7.93 5.32C7.93 5.56 7.86 5.8 7.72 6.03C7.59 6.26 7.4 6.5 7.16 6.74L6.4 7.53C6.29 7.64 6.24 7.77 6.24 7.93C6.24 8.01 6.25 8.08 6.27 8.16C6.3 8.24 6.33 8.3 6.35 8.36C6.53 8.69 6.84 9.12 7.28 9.64C7.73 10.16 8.21 10.69 8.73 11.22C9.09 11.57 9.44 11.91 9.79 12.21Z" fill="white"/>
<path d="M19.9701 16.33C19.9701 16.61 19.9201 16.9 19.8201 17.18C19.7901 17.26 19.7601 17.34 19.7201 17.42C19.5501 17.78 19.3301 18.12 19.0401 18.44C18.5501 18.98 18.0101 19.37 17.4001 19.62C17.3901 19.62 17.3801 19.63 17.3701 19.63C16.7801 19.87 16.1401 20 15.4501 20C14.4301 20 13.3401 19.76 12.1901 19.27C11.0401 18.78 9.8901 18.12 8.7501 17.29C8.3601 17 7.9701 16.71 7.6001 16.4L10.8701 13.13C11.1501 13.34 11.4001 13.5 11.6101 13.61C11.6601 13.63 11.7201 13.66 11.7901 13.69C11.8701 13.72 11.9501 13.73 12.0401 13.73C12.2101 13.73 12.3401 13.67 12.4501 13.56L13.2101 12.81C13.4601 12.56 13.7001 12.37 13.9301 12.25C14.1601 12.11 14.3901 12.04 14.6401 12.04C14.8301 12.04 15.0301 12.08 15.2501 12.17C15.4701 12.26 15.7001 12.39 15.9501 12.56L19.2601 14.91C19.5201 15.09 19.7001 15.3 19.8101 15.55C19.9101 15.8 19.9701 16.05 19.9701 16.33Z" fill="white"/>
</svg>
