<svg width="12" height="16" viewBox="0 0 12 16" fill="none" xmlns="http://www.w3.org/2000/svg">
<path d="M6.05057 0C4.49481 0 3.00277 0.618023 1.90268 1.71811C0.802593 2.8182 0.18457 4.31024 0.18457 5.866C0.18457 8.966 5.41057 15.518 5.63457 15.801C5.68451 15.8633 5.74782 15.9137 5.81983 15.9482C5.89183 15.9828 5.97069 16.0008 6.05057 16.0008C6.13045 16.0008 6.20931 15.9828 6.28131 15.9482C6.35332 15.9137 6.41663 15.8633 6.46657 15.801C6.69057 15.518 11.9166 8.965 11.9166 5.866C11.9166 4.31024 11.2985 2.8182 10.1985 1.71811C9.09837 0.618023 7.60633 0 6.05057 0ZM6.05057 7.466C5.62875 7.4658 5.21645 7.34054 4.86581 7.10604C4.51517 6.87154 4.24194 6.53834 4.08065 6.14857C3.91936 5.7588 3.87726 5.32996 3.95968 4.91626C4.04209 4.50256 4.24532 4.12259 4.54366 3.82439C4.84201 3.52618 5.22208 3.32313 5.63581 3.24091C6.04954 3.15869 6.47837 3.20099 6.86806 3.36246C7.25776 3.52393 7.59083 3.79732 7.82516 4.14807C8.0595 4.49882 8.18457 4.91118 8.18457 5.333C8.18457 5.61319 8.12937 5.89064 8.02211 6.14949C7.91485 6.40835 7.75765 6.64353 7.55948 6.84161C7.3613 7.03969 7.12604 7.19679 6.86714 7.30392C6.60824 7.41106 6.33076 7.46613 6.05057 7.466Z" fill="#FF5E14"/>
</svg>
