<svg width="16" height="16" viewBox="0 0 16 16" fill="none" xmlns="http://www.w3.org/2000/svg">
<path fill-rule="evenodd" clip-rule="evenodd" d="M1.88541 0.510997C2.06038 0.336287 2.27048 0.200757 2.50179 0.113389C2.7331 0.0260215 2.98033 -0.0111892 3.22711 0.00422288C3.47389 0.019635 3.71457 0.0873181 3.93321 0.202787C4.15185 0.318256 4.34346 0.478873 4.49533 0.673996L6.29027 2.97998C6.61926 3.40298 6.73526 3.95398 6.60526 4.47397L6.05828 6.66396C6.03 6.77739 6.03153 6.8962 6.06272 7.00887C6.0939 7.12153 6.15369 7.22422 6.23628 7.30696L8.6932 9.76394C8.77603 9.84669 8.87889 9.90658 8.99174 9.93778C9.1046 9.96897 9.2236 9.97041 9.33718 9.94194L11.5261 9.39494C11.7827 9.33078 12.0506 9.3258 12.3094 9.38037C12.5682 9.43494 12.8112 9.54764 13.0201 9.70994L15.326 11.5039C16.155 12.1489 16.231 13.3739 15.489 14.1149L14.455 15.1489C13.715 15.8889 12.6091 16.2139 11.5781 15.8509C8.93937 14.9224 6.54354 13.4118 4.56833 11.4309C2.58768 9.45596 1.07705 7.06042 0.148466 4.42197C-0.213522 3.39198 0.111467 2.28499 0.851444 1.54499L1.88541 0.510997ZM11.0001 0.499997C11.0001 0.36739 11.0528 0.240213 11.1466 0.146446C11.2403 0.0526781 11.3675 0 11.5001 0L15.5 0C15.6326 0 15.7598 0.0526781 15.8535 0.146446C15.9473 0.240213 16 0.36739 16 0.499997V4.49997C16 4.63258 15.9473 4.75976 15.8535 4.85352C15.7598 4.94729 15.6326 4.99997 15.5 4.99997C15.3674 4.99997 15.2402 4.94729 15.1464 4.85352C15.0527 4.75976 15 4.63258 15 4.49997V1.70699L10.8541 5.85397C10.7602 5.94785 10.6329 6.0006 10.5001 6.0006C10.3674 6.0006 10.24 5.94785 10.1462 5.85397C10.0523 5.76008 9.99953 5.63274 9.99953 5.49997C9.99953 5.36719 10.0523 5.23986 10.1462 5.14597L14.293 0.999994H11.5001C11.3675 0.999994 11.2403 0.947316 11.1466 0.853548C11.0528 0.759781 11.0001 0.632604 11.0001 0.499997Z" fill="#FF5E14"/>
</svg>
