<svg width="16" height="15" viewBox="0 0 16 15" fill="none" xmlns="http://www.w3.org/2000/svg">
<path d="M5.53565 11.3672V14.3022C5.53528 14.4024 5.56666 14.5001 5.62529 14.5813C5.68391 14.6626 5.76677 14.7231 5.86196 14.7543C5.95715 14.7855 6.05979 14.7858 6.15513 14.7551C6.25048 14.7243 6.33363 14.6641 6.39265 14.5832L8.10965 12.2472L5.53565 11.3672Z" fill="#FF5E14"/>
<path d="M14.9856 0.312006C14.9143 0.261266 14.8303 0.231238 14.7429 0.225238C14.6556 0.219238 14.5683 0.2375 14.4906 0.278006L0.254626 7.71201C0.172408 7.75506 0.104606 7.82127 0.0595956 7.90243C0.0145857 7.9836 -0.00565949 8.07618 0.00136121 8.16872C0.00838191 8.26127 0.0423609 8.34973 0.0991002 8.42318C0.15584 8.49663 0.232853 8.55184 0.320626 8.58201L4.27763 9.93501L12.7066 2.72401L6.18463 10.586L12.8176 12.853C12.867 12.8695 12.9186 12.8779 12.9706 12.878C13.0837 12.8782 13.193 12.838 13.279 12.7647C13.365 12.6913 13.422 12.5896 13.4396 12.478L15.1796 0.769006C15.1926 0.682349 15.1813 0.593797 15.1471 0.513143C15.1128 0.432489 15.057 0.362877 14.9856 0.312006Z" fill="#FF5E14"/>
</svg>
